PathFileType	4	(X/Y/Z)	KinectSkeleton.trc																																																	
DataRate	CameraRate	NumFrames	NumMarkers	Units	OrigDataRate	OrigDataStartFrame	OrigNumFrames																																													
60	60	21	17	mm	60	31	300																																													
Frame#	Time	Neck			ShoulderMid			R.Shoulder			L.Shoulder			R.Elbow			L.Elbow			R.Wrist			L.Wrist			HipCenter			R.Hip			L.Hip			R.Knee			L.Knee			R.Ankle			L.Ankle			R.Foot			L.Foot		
		X1	Y1	Z1	X2	Y2	Z2	X3	Y3	Z3	X4	Y4	Z4	X5	Y5	Z5	X6	Y6	Z6	X7	Y7	Z7	X8	Y8	Z8	X9	Y9	Z9	X10	Y10	Z10	X11	Y11	Z11	X12	Y12	Z12	X13	Y13	Z13	X14	Y14	Z14	X15	Y15	Z15	X16	Y16	Z16	X17	Y17	Z17
																																																				
31	2.187	-1956.45	765.075	-297.68	-1956.45	765.075	-297.68	-1952.964	714.241	-122.297	-1913.323	670.909	-460.755	-1908.964	637.916	156.414	-1748.16	551.278	-662.517	-1805.506	615.303	376.041	-1543.276	502.944	-779.394	-1855.202	232.126	-169.224	-1838.251	258.63	-89.877	-1874	202.734	-257.217	-1496.219	56.846	31.144	-1874.045	-211.377	-222.124	-1198.477	-188.867	140.978	-2004.007	-586.529	-210.984	-1045.946	-114.558	197.802	-1845.274	-698.22	-198.674
32	2.265	-1961.424	762.848	-304.265	-1961.424	762.848	-304.265	-1956.224	713.309	-128.545	-1916.378	666.737	-465.466	-1910.122	650.402	153.115	-1749.477	558.026	-671.86	-1807.759	632.633	373.656	-1543.045	520.811	-789.997	-1853.813	231.638	-174.719	-1835.578	259.139	-96.013	-1874.036	201.14	-262.002	-1468.22	106.39	22.352	-1859.886	-212.489	-224.9	-1266.375	-227.679	115.604	-1998.987	-584.208	-211.477	-1090.842	-212.355	146.59	-1839.467	-695.215	-205.032
33	2.341	-1965.287	757.887	-310.06	-1965.287	757.887	-310.06	-1957.755	710.81	-133.598	-1919.317	662.351	-470.611	-1909.507	661.257	150.326	-1748.968	565.586	-680.067	-1802.979	659.645	369.571	-1545.711	531.332	-804.39	-1845.984	232.05	-171.118	-1826.833	261.829	-93.475	-1867.221	199.027	-257.221	-1451.11	124.904	17.611	-1838.48	-213.999	-222.421	-1283.874	-229.022	105.77	-1993.227	-579.66	-218.655	-1107.779	-252.354	126.888	-1853.198	-714.489	-214.663
34	2.404	-1971.52	750.732	-318.858	-1971.52	750.732	-318.858	-1963.481	706.524	-142.052	-1921.832	651.875	-476.366	-1911.494	667.049	142.245	-1754.691	558.592	-689.245	-1801.294	683.191	358.575	-1551.854	532.197	-815.311	-1838.281	233.545	-166.79	-1818.683	266.658	-90.797	-1860.015	196.824	-251.063	-1433.968	155.917	15.789	-1828.089	-215.519	-220.169	-1125.034	-75.556	122.552	-1990.22	-577.192	-218.683	-953.955	-24.865	115.797	-1845.241	-704.891	-200.276
35	2.475	-1968.819	744.212	-324.672	-1968.819	744.212	-324.672	-1965.007	703.639	-147.624	-1917.229	646.334	-481.028	-1914.242	674.426	137.2	-1754.682	552.346	-695.943	-1802.659	698.99	351.162	-1559.509	519.559	-830.869	-1836.908	231.359	-163.02	-1817.206	265.82	-87.957	-1858.757	193.142	-246.262	-1435.454	147.696	16.309	-1820.277	-216.927	-210.343	-1126.207	-82.692	119.775	-1981.799	-577.506	-207.356	-961.231	-16.622	109.682	-1843.12	-712.362	-203.858
36	2.542	-1967.68	735.036	-329.802	-1967.68	735.036	-329.802	-1967.516	698.003	-152.749	-1917.309	639.652	-486.756	-1915.015	677.871	131.668	-1760.29	543.811	-703.833	-1798.557	707.237	341.577	-1564.754	506.702	-835.823	-1840.182	225.982	-158.578	-1824.222	261.022	-83.179	-1857.882	187.123	-242.193	-1448.494	126.596	18.353	-1810.172	-220.09	-199.55	-1126.54	-84.937	118.725	-1985.842	-572.558	-209.476	-969.814	-2.27	108.717	-1851.112	-710.103	-197.733
37	2.62	-1973.325	732.378	-332.198	-1973.325	732.378	-332.198	-1970.156	695.087	-154.711	-1922.123	633.151	-487.624	-1913.309	679.341	129.84	-1761.847	536.321	-702.746	-1797.971	713.599	340.276	-1566.91	501.262	-837.173	-1842.619	225.475	-154.27	-1832.297	261.572	-78.167	-1854.066	185.444	-238.664	-1456.667	120.824	18.977	-1800.327	-221.915	-195.272	-1124.967	-78.844	115.543	-1979.274	-573.632	-209.153	-972.553	12.533	107.469	-1843.304	-710.61	-197.639
38	2.682	-1976.069	721.247	-337.005	-1976.069	721.247	-337.005	-1974.185	690.008	-157.923	-1923.061	620.131	-491.195	-1915.195	677.851	127.394	-1760.149	523.177	-705.588	-1795.812	713.715	336.268	-1562.553	496.542	-839.54	-1837.537	216.563	-152.145	-1823.219	253.796	-76.914	-1853.416	175.273	-235.573	-1426.293	177.363	13.263	-1796.619	-232.99	-190.968	-1125.562	-68.792	109.641	-1984.806	-580.936	-213.728	-971.321	21.052	108.457	-1843.068	-711.092	-188.995
39	2.756	-1978.833	714.152	-341.108	-1978.833	714.152	-341.108	-1976.831	680.279	-162.269	-1925.441	608.711	-492.202	-1915.297	672.91	122.035	-1764.651	510.165	-706.655	-1793.05	710.709	328.289	-1566.631	486.141	-839.55	-1843.583	211.535	-152.2	-1829.907	249.305	-77.325	-1858.748	169.649	-235.235	-1433.507	176.083	13.762	-1783.79	-233.891	-183.311	-1137.833	-76.04	106.742	-1965.888	-583.274	-216.462	-992.166	26.359	111.545	-1830.877	-720.217	-194.113
40	2.818	-1978.947	694.808	-343.869	-1978.947	694.808	-343.869	-1977.711	664.67	-164.953	-1920.643	593.281	-494.298	-1918.555	663.393	119.274	-1756.475	502.596	-708.798	-1791.724	709.596	320.336	-1560.642	477.827	-843.802	-1839.264	197.92	-147.166	-1825.594	237.04	-73.206	-1854.425	154.537	-229.184	-1433.714	146.808	17.927	-1765.614	-245.181	-177.02	-1129.881	-94.582	109.184	-1969.101	-581.493	-210.284	-992.42	17.944	114.274	-1841.476	-724.722	-187.733
41	2.892	-1981.561	687.055	-346.675	-1981.561	687.055	-346.675	-1980.486	658.975	-167.417	-1922.349	584.007	-495.869	-1920.074	659.89	116.658	-1757.48	492.856	-709.774	-1789.538	707.719	315.06	-1562.784	467.552	-846.469	-1840.769	191.617	-146.396	-1827.268	231.154	-72.591	-1855.741	147.771	-228.243	-1435.295	141.195	19.108	-1758.999	-250.023	-174.28	-1132.588	-101.344	111.696	-1960.934	-587.068	-211.128	-998.306	15.102	115.675	-1832.714	-730.048	-189.784
42	2.958	-1982.493	670.83	-347.849	-1982.493	670.83	-347.849	-1982.365	646.549	-168.011	-1924.658	565.722	-496.942	-1921.093	651.594	116.613	-1756.601	478.842	-711.137	-1784.043	701.69	310.792	-1559.48	453.562	-845.435	-1846.244	175.272	-140.815	-1835.248	215.428	-66.674	-1858.438	130.74	-223.034	-1437.8	139.16	18.489	-1743.677	-262.174	-160.977	-1134.226	-104.47	109.862	-1963.807	-587.32	-209.693	-994.991	6.662	115.851	-1834.505	-730.362	-190.865
43	3.036	-1983.744	656.636	-350.943	-1983.744	656.636	-350.943	-1982.02	635.869	-170.803	-1926.26	547.879	-497.738	-1920.987	643.423	113.672	-1757.882	464.324	-712.817	-1782.54	695.778	306.11	-1558.803	441.9	-844.502	-1845.278	163.613	-139.741	-1833.946	204.005	-65.826	-1857.844	118.82	-221.709	-1438.286	123.151	22.406	-1731.341	-269.097	-152.755	-1126.603	-110.158	112.558	-1956.939	-589.246	-207.612	-980.559	-8.158	115.554	-1832.039	-735.664	-186.175
44	3.097	-1975.406	624.133	-354.034	-1975.406	624.133	-354.034	-1975.85	608.466	-174.542	-1921.476	514.376	-499.349	-1915.853	621.333	108.229	-1756.385	426.087	-712.878	-1779.386	682.585	297.653	-1559.347	411.517	-846.193	-1832.811	141.466	-131.584	-1820.306	184.277	-59.819	-1846.678	93.989	-211.169	-1425.467	103.901	20.969	-1716.513	-290.001	-141.472	-1120.42	-133.207	113.587	-1957.052	-593.796	-208.048	-980.617	-24.459	115.109	-1827.545	-734.394	-185.187
45	3.171	-1976.528	620.078	-356.071	-1976.528	620.078	-356.071	-1975.123	603.704	-175.372	-1923.463	507.497	-501.196	-1913.756	612.846	108.844	-1755.469	417.322	-713.707	-1776.294	677.346	298.129	-1556.049	401.448	-845.622	-1829.536	136.713	-130.438	-1816.179	180.239	-58.72	-1844.348	88.443	-209.971	-1423.186	83.435	24.302	-1708.333	-295.028	-135.638	-1073.278	-87.925	112.369	-1961.34	-590.382	-206.381	-944.253	33.201	132.197	-1834.695	-735.51	-187.367
46	3.233	-1971.565	593.807	-349.751	-1971.565	593.807	-349.751	-1969.586	582.859	-170.744	-1927.351	485.382	-497.172	-1904.668	603.451	109.259	-1766.864	386.834	-708.163	-1766.991	674.438	293.068	-1566.577	365.561	-833.769	-1823.331	116.205	-125.55	-1806.496	159.453	-55.356	-1842.001	68.244	-203.393	-1417.011	61.605	23.58	-1696.187	-305.756	-121.372	-1073.261	-115.509	107.416	-1956.982	-587.531	-198.234	-963.166	20.141	131.804	-1833.003	-733.52	-189.517
47	3.295	-1975.319	582.937	-354.804	-1975.319	582.937	-354.804	-1966.724	569.086	-173.917	-1928.023	468.669	-499.857	-1896.279	590.647	107.211	-1767.165	371.488	-714.411	-1759.89	671.426	290.627	-1565.683	351.196	-842.088	-1816.405	107.05	-123.812	-1801.458	152.008	-53.402	-1832.98	57.193	-201.894	-1412.801	34.35	20.568	-1697.086	-322.257	-110.86	-1070.875	-155.285	100.346	-1975.007	-589.769	-195.35	-964.367	-14.203	120.367	-1840.85	-729.009	-193.741
48	3.377	-1979.424	582.611	-357.359	-1979.424	582.611	-357.359	-1968.755	569.123	-175.493	-1933.135	464.604	-501.294	-1893.227	587.059	105.997	-1764.738	368.258	-712.21	-1756.086	669.981	289.417	-1564.42	348.013	-843.799	-1826.229	102.824	-123.219	-1810.026	147.626	-52.502	-1844.197	53.141	-201.641	-1421.77	23.512	23.925	-1694.112	-323.009	-110.293	-1075.008	-160.781	104.825	-1972.938	-592.454	-194.431	-965.145	-20.254	116.326	-1831.767	-725.924	-194.246
49	3.432	-1978.421	571.428	-362.926	-1978.421	571.428	-362.926	-1964.506	560.543	-181.307	-1933.457	451.944	-505.553	-1882.588	581.241	97.744	-1768.098	355.424	-718.205	-1743.602	664.248	279.243	-1569.66	336.924	-852.22	-1822.804	95.65	-123.88	-1806.469	141.061	-53.738	-1840.918	45.29	-201.664	-1417.921	18.635	20.529	-1688.095	-328.511	-108.064	-1071.874	-166.25	100.16	-1971.337	-592.351	-192.415	-960.249	-27.473	111.785	-1838.046	-733.276	-194.542
50	3.496	-1972.099	554.577	-367.999	-1972.099	554.577	-367.999	-1958.348	550.821	-186.807	-1933.556	433.637	-509.762	-1881.638	578.184	92.44	-1769.814	342.853	-725.276	-1746.097	662.008	275.406	-1564.086	343.115	-848.106	-1823.797	85.337	-115.977	-1807.524	132.226	-47.044	-1841.843	33.34	-192.421	-1415.962	20.562	22.857	-1680.716	-337.38	-104.965	-1064.894	-153.163	100.936	-1969.602	-593.061	-190.952	-948.536	-18.498	106.61	-1835.665	-732.743	-193.359
51	3.569	-1970.239	544.616	-370.04	-1970.239	544.616	-370.04	-1954.084	545.536	-189.597	-1931.485	419.86	-508.182	-1879.379	581.417	88.474	-1769.688	335.373	-726.762	-1746.871	662.359	274.138	-1565.885	342.289	-851.431	-1821.792	81.84	-110.396	-1805.223	129.701	-42.469	-1840.165	28.764	-185.724	-1414.516	18.273	26.513	-1680.999	-343.303	-105.572	-1064.805	-156.406	103.466	-1973.641	-593.547	-190.327	-950.617	-20.471	109.025	-1837.843	-730.631	-196.362
